<svg fill="none" xmlns="http://www.w3.org/2000/svg" viewBox="0 0 530 328">
  <g id="foundlogo">
    <path id="bg" fill="#000" d="M0 0h530v328H0z"/>
    <path id="firstsquare" fill="#DF6436" stroke="#DF6436" stroke-width="5.386" d="M81.215 155.92h5.386v5.386h-5.386z"/>
    <path id="secondsequence4" fill="#DF6436" stroke="#DF6436" stroke-width="5.386" d="M65.469 155.92h5.386v5.386h-5.386z"/>
    <path id="secondsequence3" fill="#DF6436" stroke="#DF6436" stroke-width="5.386" d="M96.961 155.92h5.386v5.386h-5.386z"/>
    <path id="secondsequence2" fill="#DF6436" stroke="#DF6436" stroke-width="5.386" d="M112.706 155.92h5.386v5.386h-5.386z"/>
    <path id="secondsequence1" fill="#DF6436" stroke="#DF6436" stroke-width="5.386" d="M81.215 155.92h5.386v5.386h-5.386z"/>
    <path id="diamond1" fill="#DF6436" stroke="#DF6436" stroke-width="5.064" d="m111.302 141.855-3.644-3.517 3.517-3.643 3.644 3.516z"/>
    <path id="diamond2" fill="#DF6436" stroke="#DF6436" stroke-width="5.064" d="m110.865 179.959-3.635-3.526 3.527-3.635 3.634 3.526z"/>
    <path id="diamond3" fill="#DF6436" stroke="#DF6436" stroke-width="5.064" d="m74.153 142.43-3.63-3.531 3.53-3.63 3.63 3.531z"/>
    <path id="diamond4" fill="#DF6436" stroke="#DF6436" stroke-width="5.064" d="m73.75 180.533-3.655-3.505 3.506-3.655 3.654 3.505z"/>
    <path id="grow1" fill="#DF6436" stroke="#DF6436" stroke-width="4.425" d="m99.96 132.715 18.474 17.045-3 3.252-18.475-17.045z"/>
    <path id="grow2" fill="#DF6436" stroke="#DF6436" stroke-width="4.425" d="m121.315 125.023 3.252 3-22.962 24.888-3.252-3.001z"/>
    <path id="grow3" fill="#DF6436" stroke="#DF6436" stroke-width="4.425" d="m64.685 148.966 17.5-16.318 3.017 3.236-17.5 16.318z"/>
    <path id="grow4" fill="#DF6436" stroke="#DF6436" stroke-width="4.425" d="m56.785 127.195 3.236-3.018 23.938 25.67-3.237 3.018z"/>
    <path id="grow5" fill="#DF6436" stroke="#DF6436" stroke-width="4.425" d="m118.872 168.154-17.908 18.706-3.196-3.06 17.908-18.706z"/>
    <path id="grow6" fill="#DF6436" stroke="#DF6436" stroke-width="4.425" d="m125.81 188.786-3.06 3.196-24.618-23.568 3.06-3.196z"/>
    <path id="grow7" fill="#DF6436" stroke="#DF6436" stroke-width="4.425" d="M82.553 187.065 63.714 168.51l3.105-3.153 18.839 18.557z"/>
    <path id="grow8" fill="#DF6436" stroke="#DF6436" stroke-width="4.425" d="m59.632 192.48-3.152-3.104 23.834-24.196 3.152 3.105z"/>
    <path id="final1" fill="#DF6436" stroke="#DF6436" stroke-width="4.484" d="m140.592 177.123-3.1 3.239-11.55-11.056 3.101-3.24z"/>
    <path id="final2" fill="#DF6436" stroke="#DF6436" stroke-width="4.484" d="m112.865 205.729-3.1 3.239-11.55-11.056 3.101-3.24z"/>
    <path id="final3" fill="#DF6436" stroke="#DF6436" stroke-width="4.484" d="M74.294 209.646 71.1 206.5l11.649-11.826 3.194 3.147z"/>
    <path id="final4" fill="#DF6436" stroke="#DF6436" stroke-width="4.484" d="m45.716 181.306-3.195-3.146 11.65-11.826 3.194 3.146z"/>
    <path id="final5" fill="#DF6436" stroke="#DF6436" stroke-width="4.484" d="m107.839 111.683 3.296 3.04-11.252 12.196-3.296-3.04z"/>
    <path id="final6" fill="#DF6436" stroke="#DF6436" stroke-width="4.484" d="m136.746 138.034 3.296 3.04-11.252 12.196-3.296-3.04z"/>
    <path id="final7" fill="#DF6436" stroke="#DF6436" stroke-width="4.484" d="m70.468 113.838 3.28-3.058 12.197 13.08-3.28 3.059z"/>
    <path id="final8" fill="#DF6436" stroke="#DF6436" stroke-width="4.484" d="m42.875 139.29 3.28-3.059 12.197 13.08-3.28 3.059z"/>
    <path id="final9" fill="#DF6436" stroke="#DF6436" stroke-width="4.484" d="m100.437 133.256 18.72 17.273-3.04 3.296-18.72-17.273z"/>
    <path id="final10" fill="#DF6436" stroke="#DF6436" stroke-width="4.484" d="m122.078 125.46 3.296 3.04-23.27 25.22-3.296-3.04z"/>
    <path id="final11" fill="#DF6436" stroke="#DF6436" stroke-width="4.484" d="m64.69 149.724 17.733-16.536 3.058 3.28-17.733 16.535z"/>
    <path id="final12" fill="#DF6436" stroke="#DF6436" stroke-width="4.484" d="m56.685 127.66 3.28-3.057 24.256 26.013-3.28 3.058z"/>
    <path id="final13" fill="#DF6436" stroke="#DF6436" stroke-width="4.484" d="m119.602 169.168-18.148 18.956-3.239-3.1 18.148-18.957z"/>
    <path id="final14" fill="#DF6436" stroke="#DF6436" stroke-width="4.484" d="m127.114 190.537-3.1 3.239-25.43-24.345 3.1-3.239z"/>
    <path id="final15" fill="#DF6436" stroke="#DF6436" stroke-width="4.484" d="m82.797 188.332-19.091-18.805 3.147-3.194 19.09 18.805z"/>
    <path id="final16" fill="#DF6436" stroke="#DF6436" stroke-width="4.484" d="m59.57 193.821-3.194-3.147 24.152-24.519 3.194 3.147z"/>
    <path id="y" d="m229.061 157.643 10-12.782 15.851-.049-19.137 23.466.038 12.137-13.363.041-.038-12.136-19.282-23.348 15.886-.049 10.062 12.72h-.017Z" fill="#fff"/>
    <path id="n" d="m288.485 144.646 13.381-.015.038 35.563-15.034.016-18.432-21.708.023 21.727-13.363.014-.038-35.562 18.374-.019 15.054 18.821-.02-18.837h.017Z" fill="#fff"/>
    <path id="a" d="m321.297 144.705 15.887.011 18.351 35.574-15.034-.01-2.693-6.088-17.156-.012-2.701 6.085-15.034-.01 18.38-35.55Zm3.223 20.791 9.414.006-4.692-10.515-4.722 10.509Z" fill="#fff"/>
    <path id="p" d="M389.502 144.666c7.064-.103 13.076 6.029 13.005 13.38.137 7.332-5.821 13.572-12.886 13.495l-19.644.087.038 8.669-13.363.059-.158-35.543 33.008-.147Zm-3.268 16.468a2.743 2.743 0 0 0 2.032-.876c.554-.58.864-1.322.86-2.153-.003-.83-.285-1.552-.879-2.145a2.652 2.652 0 0 0-2.04-.894l-16.321.072.027 6.051 16.321-.073v.018Z" fill="#fff"/>
    <path id="s2" d="M428.833 158.42c9.55.541 22.981 1.278 22.93 10.2-.038 10.15-11.27 12.528-23.293 12.483-12.006-.063-21.971-1.617-23.2-12.657l13.99.052c1.521 2.751 5.068 3.487 9.244 3.503 4.176.015 9.259-.688 9.269-3.433.006-1.554-4.152-1.822-9.527-2.095-9.551-.541-22.981-1.278-22.93-10.164.038-10.15 11.27-12.546 23.293-12.501 12.006.117 21.971 1.563 23.199 12.675l-13.989-.052c-1.521-2.805-5.068-3.487-9.244-3.503-4.176-.015-9.259.598-9.27 3.434-.006 1.553 4.152 1.785 9.528 2.076v-.018Z" fill="#fff"/>
    <path id="e" d="m455.246 144.832 40.088-.242.055 9.102-26.743.162.028 4.551 26.743-.161.05 8.235-26.744.162.028 4.551 26.743-.161.055 9.12-40.089.242-.214-35.561Z" fill="#fff"/>
    <path id="s" d="M184.176 157.376c9.552.504 22.985 1.186 22.97 10.109.003 10.15-11.219 12.573-23.243 12.576-12.006-.033-21.976-1.548-23.249-12.565l13.989-.003c1.532 2.745 5.082 3.466 9.258 3.465 4.176-.001 9.256-.725 9.256-3.47-.001-1.553-4.159-1.805-9.536-2.056-9.553-.504-22.986-1.205-22.971-10.091-.002-10.15 11.22-12.591 23.244-12.594 12.006.069 21.976 1.475 23.249 12.582l-13.989.004c-1.532-2.799-5.082-3.466-9.258-3.465-4.176.001-9.257.634-9.256 3.47 0 1.553 4.159 1.769 9.536 2.038Z" fill="#fff"/>
  </g>
</svg>
